<?xml version="1.0" encoding="UTF-8"?>
<svg width="124px" height="124px" viewBox="0 0 124 124" version="1.1" xmlns="http://www.w3.org/2000/svg" xmlns:xlink="http://www.w3.org/1999/xlink">
    <!-- Generator: Sketch 48.2 (47327) - http://www.bohemiancoding.com/sketch -->
    <title>logo</title>
    <desc>Created with Sketch.</desc>
    <defs></defs>
    <g id="Desktop" stroke="none" stroke-width="1" fill="none" fill-rule="evenodd" transform="translate(-451.000000, -231.000000)">
        <g id="logo" transform="translate(451.000000, 231.000000)" fill="#FAFBF6">
            <g id="Group-35" transform="translate(62.000000, 62.000000) rotate(-90.000000) translate(-62.000000, -62.000000) ">
                <path d="M2.2443,61.6585 C2.2443,28.7029 28.9593,1.9885 61.9143,1.9885 C94.8693,1.9885 121.5843,28.7029 121.5843,61.6585 C121.5843,94.6134 94.8693,121.3285 61.9143,121.3285 C28.9593,121.3285 2.2443,94.6134 2.2443,61.6585 M123.446,61.6903 C123.446,27.7953 95.969,0.3183 62.074,0.3183 C28.179,0.3183 0.70144,27.7953 0.70144,61.6903 C0.70144,95.5853 28.179,123.0623 62.074,123.0623 C95.969,123.0623 123.446,95.5853 123.446,61.6903" id="Fill-29"></path>
                <path d="M68.1921,61.4971 C68.1921,57.6415 64.8505,55.2179 60.2605,55.2179 C56.2954,55.2179 52.6601,57.2008 52.6601,61.3863 C52.6601,63.9206 54.3119,66.2707 57.2495,67.0418 C57.7269,67.1513 58.1675,67.2248 58.7189,67.2248 L62.2434,67.2248 C62.7214,67.2248 63.3817,67.1513 63.8591,67.0418 C66.2092,66.4169 68.1921,64.3612 68.1921,61.4971" id="Fill-31"></path>
                <path d="M51.1911,101.852 C51.1911,100.1262 51.7052,98.5472 52.4396,97.3722 L53.9084,97.9964 C53.3209,98.9512 52.6967,100.3832 52.6967,101.9622 C52.6967,104.7523 54.2022,106.0742 56.0382,106.0742 C57.9843,106.0742 59.0119,104.8992 60.0407,102.3661 C61.1423,99.4652 62.7212,97.8863 64.8504,97.8863 C67.384,97.8863 69.624,99.8692 69.624,103.3202 C69.624,104.9359 69.1466,106.2952 68.5224,107.2126 L67.0903,106.5149 C67.5309,105.9274 68.1552,104.7896 68.1552,103.0271 C68.1552,100.7872 66.7231,99.6121 65.1074,99.6121 C63.2714,99.6121 62.4636,100.8606 61.4727,103.2468 C60.3711,106.111 58.9384,107.8007 56.2585,107.8007 C53.2475,107.8007 51.1911,105.4506 51.1911,101.852 Z M67.8614,95.9762 C67.9348,95.7192 67.9348,95.4628 67.9348,95.1323 C67.9348,92.7088 65.8418,90.9823 63.0144,90.5056 C62.5003,90.4321 61.9134,90.3587 61.3259,90.3587 L51.5951,90.3587 L51.5951,88.6322 L63.9324,88.6322 C65.6949,88.6322 67.5309,88.5594 69.22,88.486 L69.22,90.1016 L65.6588,90.1751 L65.6588,90.2485 C67.8614,91.0196 69.624,92.8556 69.624,95.2792 C69.624,95.4989 69.5872,95.7559 69.5505,95.9762 L67.8614,95.9762 Z M51.5951,83.0508 L54.1287,82.7938 L54.1287,82.6842 C52.7701,81.8396 51.1911,79.8929 51.1911,77.066 C51.1911,73.5409 53.6881,71.8885 56.0382,71.8885 C60.1135,71.8885 62.5743,75.4871 62.5003,82.6469 L62.9409,82.6469 C64.7035,82.6469 68.1919,82.3164 68.1552,78.1303 C68.1552,76.5887 67.7519,74.973 66.8339,73.7245 L68.1184,73.1737 C69.1833,74.7527 69.624,76.7356 69.624,78.3145 C69.624,83.418 65.8051,84.3727 62.6478,84.3727 L55.7811,84.3727 C54.3858,84.3727 52.9537,84.4468 51.5951,84.6298 L51.5951,83.0508 Z M51.5951,67.5182 L54.9366,67.4087 L54.9366,67.3352 C52.9904,66.4172 51.1911,64.3242 51.1911,61.0567 C51.1911,56.7238 54.8264,53.4557 60.0774,53.4557 C65.952,53.4184 69.624,57.0543 69.624,61.3866 C69.624,64.4344 68.045,66.3432 66.5395,67.1516 L66.5395,67.2251 L77.6656,67.2251 L77.6656,68.9509 L55.7077,68.9509 C54.3858,68.9509 52.8435,69.0238 51.5951,69.0972 L51.5951,67.5182 Z M60.5908,51.105 L60.5908,38.1067 C54.9366,38.1067 52.734,41.1912 52.734,44.8265 C52.734,47.3969 53.2475,48.7188 53.7248,49.7103 L52.3295,50.1509 C51.9623,49.4893 51.1911,47.6907 51.1911,44.6062 C51.1911,39.5394 54.8999,36.3809 60.0774,36.3809 C65.952,36.3809 69.624,39.7591 69.624,44.3118 C69.624,50.0768 64.1894,51.1784 61.6563,51.1784 C61.1784,51.1784 60.8852,51.1784 60.5908,51.105 Z M51.1911,27.2743 C51.1911,21.289 55.0467,15.5613 63.8228,15.5613 C71.1662,15.5613 76.7476,20.2975 76.7476,28.0822 C76.7476,31.2395 76.0494,33.0755 75.646,33.8466 L74.1772,33.2597 C74.8015,32.0112 75.2421,30.2113 75.2421,28.1189 C75.2421,21.4365 70.9092,17.3599 63.7855,17.3599 C57.0663,17.3599 52.734,21.2155 52.734,27.8251 C52.734,29.9549 53.174,32.0112 53.8717,33.406 L52.4769,33.92 C51.816,32.6716 51.1911,30.2854 51.1911,27.2743 Z M120.5387,61.8242 C120.5387,29.524 94.3543,3.3396 62.0547,3.3396 C29.7552,3.3396 3.57019,29.524 3.57019,61.8242 C3.57019,94.1237 29.7552,120.3081 62.0547,120.3081 C94.3543,120.3081 120.5387,94.1237 120.5387,61.8242 Z" id="Fill-32"></path>
                <path d="M56.3316,73.7245 C53.7979,73.7245 52.6602,75.4136 52.6602,77.2496 C52.6602,80.1872 54.4589,81.8396 56.1853,82.4633 C56.5519,82.5734 56.9191,82.6469 57.2496,82.6469 L61.0317,82.6469 C61.1419,78.7913 60.5544,73.7245 56.3316,73.7245" id="Fill-33"></path>
                <path d="M68.1921,44.0922 C68.1921,40.1998 64.7037,38.5107 61.9864,38.217 L61.9864,49.3425 C64.4466,49.3798 68.1921,48.3517 68.1921,44.0922" id="Fill-34"></path>
            </g>
        </g>
    </g>
</svg>